# xmcd
#
# Track frame offsets:
#	150
#	18300
#	29777
#	47702
#	58580
#	76430
#	88282
#	99982
#	109735
#	124735
#	135460
#
# Disc length: 1937 seconds
#
# Revision: 0
# Processed by: cddbd v1.5.2PL0 Copyright (c) Steve Scherf et al.
# Submitted via: dBpowerAMP V4.0
#
DISCID=90078f0b
DTITLE=Toritos Barrios - Dedicado A Nuestros Padrinos
DYEAR=1900
DGENRE=Banda
TTITLE0=Querido Amigo/La Manuelita/El Toro Viejo
TTITLE1=Cariño Olvidado
TTITLE2=Te Quiero
TTITLE3=Panteon Privado
TTITLE4=Se Le Moja La Canoa
TTITLE5=La Mafia Muere
TTITLE6=Quiero Llenarte Toda
TTITLE7=Quisiera
TTITLE8=Volverte A Ver
TTITLE9=Tesoro Infinito
TTITLE10=Amor Sin Medida
EXTD=
EXTT0=
EXTT1=
EXTT2=
EXTT3=
EXTT4=
EXTT5=
EXTT6=
EXTT7=
EXTT8=
EXTT9=
EXTT10=
PLAYORDER=
